<svg width="245" height="246" fill="none" xmlns="http://www.w3.org/2000/svg"><circle cx="122.5" cy="123.032" r="122.5" fill="#EDF1F4" fill-opacity=".8"/><circle cx="122.5" cy="123.032" r="120.5" stroke="#E9E9F4" stroke-opacity=".2" stroke-width="4"/><path fill-rule="evenodd" clip-rule="evenodd" d="M182.987 142.075a5.164 5.164 0 0 1-3.656 1.509 5.142 5.142 0 0 1-3.651-1.509l-23.015-22.985c-4.388 2.382-9.33 3.854-14.666 3.854-17.093 0-30.997-13.886-30.997-30.956 0-17.069 13.904-30.956 30.997-30.956S169 74.92 169 91.988c0 7.987-3.132 15.21-8.126 20.712l22.113 22.075a5.16 5.16 0 0 1 0 7.3zm-44.988-70.726c-11.399 0-20.666 9.258-20.666 20.64 0 11.381 9.267 20.638 20.666 20.638 11.399 0 20.666-9.257 20.666-20.639 0-11.38-9.267-20.639-20.666-20.639zm-5.165 61.918a5.162 5.162 0 0 1 5.165 5.161v41.273a5.163 5.163 0 0 1-5.165 5.161h-25.832a5.164 5.164 0 0 1-5.17-5.161v-41.273a5.163 5.163 0 0 1 5.17-5.161h25.832zm-20.666 41.278 15.905.165v-30.997l-15.905-.129v30.961zm-20.666 10.317H65.665a5.163 5.163 0 0 1-5.165-5.161v-72.235a5.163 5.163 0 0 1 5.165-5.161h25.837a5.163 5.163 0 0 1 5.165 5.161v72.235a5.163 5.163 0 0 1-5.165 5.161zm-4.917-72.147-15.75-.088v61.918l15.75.165v-61.995zm61.749 41.191h25.832a5.158 5.158 0 0 1 5.165 5.156v20.809a5.16 5.16 0 0 1-5.165 5.161h-25.832a5.163 5.163 0 0 1-5.17-5.161v-20.809a5.162 5.162 0 0 1 5.17-5.156zm5.166 20.804h16.061v-10.332l-16.061-.155v10.487z" fill="url(#a)"/><defs><linearGradient id="a" x1="60.5" y1="61.032" x2="204.857" y2="153.121" gradientUnits="userSpaceOnUse"><stop stop-color="#4C54D2"/><stop offset=".563" stop-color="#BF14A2"/><stop offset="1" stop-color="#F73A1C"/></linearGradient></defs></svg>