<svg width="245" height="246" fill="none" xmlns="http://www.w3.org/2000/svg"><circle cx="122.5" cy="122.782" r="122.5" fill="#EDF1F4" fill-opacity=".8"/><path fill-rule="evenodd" clip-rule="evenodd" d="m181.789 124.965 7.099 13.86a5.561 5.561 0 0 1-1.932 7.205l-13.079 8.457-.78 15.551a5.57 5.57 0 0 1-5.279 5.278l-15.55.775-8.457 13.08a5.554 5.554 0 0 1-7.204 1.932l-13.86-7.099-13.859 7.099a5.55 5.55 0 0 1-7.205-1.932l-8.451-13.08-15.555-.775a5.562 5.562 0 0 1-5.279-5.278l-.775-15.551-13.084-8.457a5.563 5.563 0 0 1-1.926-7.205l7.092-13.86-7.092-13.854a5.57 5.57 0 0 1 1.926-7.211l13.084-8.452.775-15.55a5.562 5.562 0 0 1 5.279-5.28l15.555-.78 8.451-13.08a5.552 5.552 0 0 1 7.205-1.925l13.859 7.098 13.86-7.098a5.554 5.554 0 0 1 7.204 1.926l8.457 13.08 15.55.78a5.57 5.57 0 0 1 5.279 5.279l.78 15.55 13.079 8.452a5.563 5.563 0 0 1 1.932 7.205l-7.099 13.86zm-11.201-2.533 6.109-11.917-11.253-7.272a5.568 5.568 0 0 1-2.533-4.392l-.668-13.371-13.376-.674a5.56 5.56 0 0 1-4.392-2.539l-7.272-11.242-11.916 6.104a5.581 5.581 0 0 1-5.077 0l-11.916-6.105-7.266 11.243a5.57 5.57 0 0 1-4.398 2.539l-13.364.674-.669 13.371a5.575 5.575 0 0 1-2.538 4.392l-11.254 7.272 6.104 11.917a5.535 5.535 0 0 1 0 5.071l-6.104 11.911 11.254 7.273a5.574 5.574 0 0 1 2.538 4.397l.669 13.371 13.364.669a5.581 5.581 0 0 1 4.398 2.538l7.266 11.248 11.916-6.104a5.562 5.562 0 0 1 5.077 0l11.916 6.104 7.272-11.248a5.57 5.57 0 0 1 4.392-2.538l13.376-.669.668-13.371a5.567 5.567 0 0 1 2.533-4.397l11.253-7.273-6.109-11.911a5.601 5.601 0 0 1 0-5.071z" fill="url(#a)"/><path d="M99.213 116.006c0-3.257.92-5.748 2.759-7.472 1.839-1.724 4.253-2.587 7.242-2.587 2.951 0 5.346.863 7.185 2.587 1.839 1.724 2.759 4.215 2.759 7.472 0 3.219-.92 5.71-2.759 7.473-1.839 1.724-4.234 2.586-7.185 2.586-2.95 0-5.364-.862-7.242-2.586-1.839-1.763-2.76-4.254-2.76-7.473zm40.81-9.426-21.785 40.637h-10.806l21.785-40.637h10.806zm-30.866 5.977c-1.571 0-2.357 1.15-2.357 3.449s.786 3.449 2.357 3.449c.766 0 1.36-.287 1.782-.862.459-.575.689-1.437.689-2.587 0-1.149-.23-2.012-.689-2.586-.422-.575-1.016-.863-1.782-.863zm19.14 25.176c0-3.218.92-5.69 2.759-7.414 1.878-1.763 4.292-2.644 7.243-2.644 2.95 0 5.326.881 7.127 2.644 1.839 1.724 2.759 4.196 2.759 7.414 0 3.258-.92 5.767-2.759 7.53-1.801 1.725-4.177 2.587-7.127 2.587-2.951 0-5.365-.862-7.243-2.587-1.839-1.763-2.759-4.272-2.759-7.53zm9.944-3.448c-1.609 0-2.414 1.149-2.414 3.448 0 2.338.805 3.507 2.414 3.507.728 0 1.303-.288 1.725-.863.459-.613.689-1.494.689-2.644 0-1.111-.23-1.954-.689-2.529-.422-.613-.997-.919-1.725-.919z" fill="url(#b)"/><defs><linearGradient id="a" x1="56" y1="58.218" x2="211.417" y2="157.361" gradientUnits="userSpaceOnUse"><stop stop-color="#4C54D2"/><stop offset=".563" stop-color="#BF14A2"/><stop offset="1" stop-color="#F73A1C"/></linearGradient><linearGradient id="b" x1="99.213" y1="105.947" x2="150.768" y2="144.385" gradientUnits="userSpaceOnUse"><stop stop-color="#4C54D2"/><stop offset=".563" stop-color="#BF14A2"/><stop offset="1" stop-color="#F73A1C"/></linearGradient></defs></svg>