<svg width="246" height="245" fill="none" xmlns="http://www.w3.org/2000/svg"><circle cx="123" cy="122.5" r="122.5" fill="#EDF1F4" fill-opacity=".8"/><path fill-rule="evenodd" clip-rule="evenodd" d="M184.061 161.638a5.136 5.136 0 0 1-5.242 2.092l-21.62-4.319-8.731 21.844a5.194 5.194 0 0 1-4.61 3.245h-.192a5.17 5.17 0 0 1-4.64-2.893l-16.024-32.767-16.024 32.767a5.184 5.184 0 0 1-4.646 2.893h-.192a5.194 5.194 0 0 1-4.605-3.245L88.8 159.411l-21.62 4.319a5.184 5.184 0 0 1-5.242-2.092 5.187 5.187 0 0 1-.197-5.643l20.81-34.492a43.59 43.59 0 0 1-3.468-17.086c0-24.216 19.705-43.917 43.92-43.917 24.21 0 43.914 19.7 43.914 43.917 0 6.06-1.235 11.842-3.462 17.096l20.805 34.482a5.177 5.177 0 0 1-.198 5.643zM76.642 151.304l14.343-2.867a5.144 5.144 0 0 1 5.813 3.141l6.011 15.03 9.598-19.628c-9.582-2.382-17.918-7.895-23.862-15.413l-11.903 19.737zm46.36-80.47c-18.521 0-33.585 15.065-33.585 33.583 0 18.517 15.064 33.588 33.585 33.588 18.515 0 33.584-15.071 33.584-33.588 0-18.518-15.069-33.584-33.584-33.584zm34.446 60.739a43.969 43.969 0 0 1-23.847 15.417l9.593 19.618 6.011-15.03a5.14 5.14 0 0 1 5.808-3.141l14.343 2.867-11.908-19.731z" fill="url(#a)"/><path clip-rule="evenodd" d="M107.956 116.701 123 87.904l15.043 28.797h-30.087z" stroke="url(#b)" stroke-width="10.166" stroke-linecap="round" stroke-linejoin="round"/><defs><linearGradient id="a" x1="61" y1="60.5" x2="205.357" y2="152.589" gradientUnits="userSpaceOnUse"><stop stop-color="#4C54D2"/><stop offset=".563" stop-color="#BF14A2"/><stop offset="1" stop-color="#F73A1C"/></linearGradient><linearGradient id="b" x1="107.956" y1="87.904" x2="142.078" y2="110.647" gradientUnits="userSpaceOnUse"><stop stop-color="#4C54D2"/><stop offset=".563" stop-color="#BF14A2"/><stop offset="1" stop-color="#F73A1C"/></linearGradient></defs></svg>