<svg width="245" height="246" fill="none" xmlns="http://www.w3.org/2000/svg"><circle cx="122.5" cy="123.282" r="122.5" fill="#EDF1F4" fill-opacity=".8"/><circle cx="122.5" cy="123.282" r="120.5" stroke="#E9E9F4" stroke-opacity=".2" stroke-width="4"/><path fill-rule="evenodd" clip-rule="evenodd" d="M173.95 178.115H85.383c-6.918 0-12.55-5.687-12.55-12.682V147.12h-5.166a5.168 5.168 0 0 1-5.167-5.169v-20.667a5.165 5.165 0 0 1 5.167-5.169h5.166V97.803c0-6.996 5.632-12.688 12.55-12.688h7.544l11.821-23.026a5.17 5.17 0 0 1 7.228-2.086l42.351 25.112h19.623c6.918 0 12.55 5.692 12.55 12.688v67.63c0 6.995-5.632 12.682-12.55 12.682zM72.833 126.448v10.334h31.006v-10.334H72.833zm38.601-54.756-6.893 13.423h29.528l-22.635-13.423zm64.733 26.11c0-1.272-1.013-2.349-2.217-2.349H85.383c-1.204 0-2.216 1.077-2.216 2.35v18.312h25.838a5.165 5.165 0 0 1 5.167 5.169v20.667a5.168 5.168 0 0 1-5.167 5.169H83.167v18.313c0 1.272 1.012 2.349 2.216 2.349h88.567c1.204 0 2.217-1.077 2.217-2.349v-67.63z" fill="url(#a)"/><path clip-rule="evenodd" d="m129.209 143.451 15.044-28.796 15.043 28.796h-30.087z" stroke="url(#b)" stroke-width="10.166" stroke-linecap="round" stroke-linejoin="round"/><defs><linearGradient id="a" x1="62.5" y1="59.282" x2="203.24" y2="152.967" gradientUnits="userSpaceOnUse"><stop stop-color="#4C54D2"/><stop offset=".563" stop-color="#BF14A2"/><stop offset="1" stop-color="#F73A1C"/></linearGradient><linearGradient id="b" x1="129.209" y1="114.655" x2="163.331" y2="137.398" gradientUnits="userSpaceOnUse"><stop stop-color="#4C54D2"/><stop offset=".563" stop-color="#BF14A2"/><stop offset="1" stop-color="#F73A1C"/></linearGradient></defs></svg>