<svg width="245" height="246" fill="none" xmlns="http://www.w3.org/2000/svg"><circle cx="122.5" cy="122.999" r="122.5" fill="#EDF1F4" fill-opacity=".8"/><path fill-rule="evenodd" clip-rule="evenodd" d="M163.833 184.999H81.166c-5.693 0-10.333-4.634-10.333-10.333V91.999c0-5.699 4.64-10.333 10.333-10.333h20.667v-5.167c0-8.546 6.954-15.5 15.5-15.5h10.333c8.546 0 15.5 6.954 15.5 15.5v5.167h20.667c5.699 0 10.333 4.634 10.333 10.333v82.667c0 5.699-4.634 10.333-10.333 10.333zm-31-108.5a5.169 5.169 0 0 0-5.167-5.167h-10.333a5.169 5.169 0 0 0-5.167 5.167v5.167h20.667v-5.167zm10.333 15.5v5.167a5.164 5.164 0 0 1-5.166 5.166 5.165 5.165 0 0 1-5.167-5.166v-5.167h-20.667v5.167a5.164 5.164 0 0 1-5.166 5.166 5.165 5.165 0 0 1-5.167-5.166v-5.167H81.166v82.667h82.651l.016-82.667h-20.667z" fill="url(#a)"/><path clip-rule="evenodd" d="m107.456 151.796 15.044-28.797 15.043 28.797h-30.087z" stroke="url(#b)" stroke-width="10.166" stroke-linecap="round" stroke-linejoin="round"/><defs><linearGradient id="a" x1="70.833" y1="60.999" x2="202.793" y2="131.149" gradientUnits="userSpaceOnUse"><stop stop-color="#4C54D2"/><stop offset=".563" stop-color="#BF14A2"/><stop offset="1" stop-color="#F73A1C"/></linearGradient><linearGradient id="b" x1="107.456" y1="122.999" x2="141.578" y2="145.742" gradientUnits="userSpaceOnUse"><stop stop-color="#4C54D2"/><stop offset=".563" stop-color="#BF14A2"/><stop offset="1" stop-color="#F73A1C"/></linearGradient></defs></svg>