<svg width="245" height="246" fill="none" xmlns="http://www.w3.org/2000/svg"><circle cx="122.5" cy="123.048" r="122.5" fill="#EDF1F4" fill-opacity=".8"/><path fill-rule="evenodd" clip-rule="evenodd" d="M110.6 160.084c-27.393 0-49.6-22.208-49.6-49.603 0-27.39 22.208-49.597 49.6-49.597 27.392 0 49.6 22.207 49.6 49.597 0 12.262-4.449 23.484-11.821 32.142L176.5 167a5.798 5.798 0 0 1-7.824 8.559l-28.842-25.003a49.376 49.376 0 0 1-29.234 9.528zm.32-12.28c20.434 0 37-16.567 37-37.003 0-20.431-16.567-36.997-37-36.997s-37 16.566-37 36.997c0 20.436 16.566 37.003 37 37.003z" fill="url(#a)"/><defs><linearGradient id="a" x1="61" y1="60.884" x2="196.846" y2="148.433" gradientUnits="userSpaceOnUse"><stop stop-color="#4C54D2"/><stop offset=".563" stop-color="#BF14A2"/><stop offset="1" stop-color="#F73A1C"/></linearGradient></defs></svg>