<svg width="245" height="246" fill="none" xmlns="http://www.w3.org/2000/svg"><circle cx="122.5" cy="123.156" r="122.5" fill="#EDF1F4" fill-opacity=".8"/><circle cx="122.5" cy="123.156" r="120.5" stroke="#E9E9F4" stroke-opacity=".1" stroke-width="4"/><path clip-rule="evenodd" d="M106.995 148.989c22.828 0 41.334-18.505 41.334-41.333s-18.506-41.333-41.334-41.333c-22.827 0-41.333 18.505-41.333 41.333s18.506 41.333 41.333 41.333z" stroke="url(#a)" stroke-width="10.166" stroke-linecap="round" stroke-linejoin="round"/><path clip-rule="evenodd" d="m91.952 119.699 15.043-28.797 15.044 28.797H91.952z" stroke="url(#b)" stroke-width="10.166" stroke-linecap="round" stroke-linejoin="round"/><path d="m127.475 160.909-3.975 3.169a5.084 5.084 0 0 0 3.975 1.914v-5.083zM117 147.774l-1.225-4.934a5.085 5.085 0 0 0-2.749 8.103l3.974-3.169zm41.859 13.135v5.083a5.08 5.08 0 0 0 3.974-1.914l-3.974-3.169zm19.568-24.537 3.974 3.169a5.083 5.083 0 0 0 .981-4.301l-4.955 1.132zm-6.984-30.598 4.956-1.131a5.087 5.087 0 0 0-2.75-3.449l-2.206 4.58zm-25.615-12.335 2.206-4.58a5.083 5.083 0 0 0-6.979 6.328l4.773-1.748zm-14.379 64.3-10.475-13.134-7.948 6.338 10.474 13.135 7.949-6.339zm27.41-1.914h-31.384v10.167h31.384v-10.167zm15.593-22.623-19.567 24.537 7.948 6.339 19.568-24.537-7.949-6.339zm-7.965-26.297 6.984 30.598 9.911-2.263-6.983-30.597-9.912 2.262zm-22.864-8.886 25.614 12.335 4.412-9.16-25.615-12.335-4.411 9.16zm9.799 9.638a46.32 46.32 0 0 0-2.821-15.967l-9.546 3.497a36.167 36.167 0 0 1 2.201 12.47h10.166zm-35.197 45.05c20.212-5.019 35.197-23.278 35.197-45.05h-10.166c0 16.991-11.695 31.264-27.481 35.183l2.45 9.867z" fill="url(#c)"/><path d="m117.001 147.773-1.225-4.933a5.08 5.08 0 0 0-2.749 8.102l3.974-3.169zm10.475 13.135-3.974 3.169a5.08 5.08 0 0 0 3.974 1.914v-5.083zm-8.801-13.588 1.432 4.877a5.083 5.083 0 1 0-2.865-9.755l1.433 4.878zm-34.524-5.22 2.815-4.233a5.085 5.085 0 0 0-7.309 1.858l4.494 2.375zm47.796 18.808 4.908 1.325a5.085 5.085 0 0 0-4.908-6.408v5.083zm-18.92-9.966 10.475 13.135 7.948-6.338-10.474-13.135-7.949 6.338zm4.215-8.5c-.484.143-.973.275-1.466.398l2.45 9.866a44.84 44.84 0 0 0 1.881-.509l-2.865-9.755zm0 0a36.24 36.24 0 0 1-10.235 1.464v10.167c4.542 0 8.94-.654 13.1-1.876l-2.865-9.755zm-10.235 1.464a36.054 36.054 0 0 1-20.041-6.039l-5.63 8.466a46.217 46.217 0 0 0 25.671 7.74v-10.167zm-27.35-4.181a30.803 30.803 0 0 0-3.568 14.43h10.166c0-3.506.866-6.795 2.39-9.679l-8.988-4.751zm-3.568 14.43c0 17.075 13.841 30.917 30.916 30.917v-10.166c-11.46 0-20.75-9.291-20.75-20.751H76.09zm30.916 30.917c14.286 0 26.297-9.685 29.85-22.839l-9.815-2.65c-2.385 8.831-10.459 15.323-20.035 15.323v10.166zm20.471-19.081h4.471v-10.166h-4.471v10.166z" fill="url(#d)"/><defs><linearGradient id="a" x1="65.662" y1="66.323" x2="161.9" y2="127.715" gradientUnits="userSpaceOnUse"><stop stop-color="#4C54D2"/><stop offset=".563" stop-color="#BF14A2"/><stop offset="1" stop-color="#F73A1C"/></linearGradient><linearGradient id="b" x1="65.662" y1="66.323" x2="161.9" y2="127.715" gradientUnits="userSpaceOnUse"><stop stop-color="#4C54D2"/><stop offset=".563" stop-color="#BF14A2"/><stop offset="1" stop-color="#F73A1C"/></linearGradient><linearGradient id="c" x1="117" y1="93.439" x2="192.235" y2="137.134" gradientUnits="userSpaceOnUse"><stop stop-color="#4C54D2"/><stop offset=".563" stop-color="#BF14A2"/><stop offset="1" stop-color="#F73A1C"/></linearGradient><linearGradient id="d" x1="81.172" y1="142.1" x2="129.221" y2="183.178" gradientUnits="userSpaceOnUse"><stop stop-color="#4C54D2"/><stop offset=".563" stop-color="#BF14A2"/><stop offset="1" stop-color="#F73A1C"/></linearGradient></defs></svg>