<svg width="245" height="245" fill="none" xmlns="http://www.w3.org/2000/svg"><circle cx="122.5" cy="122.5" r="122.5" fill="#EDF1F4" fill-opacity=".8"/><path fill-rule="evenodd" clip-rule="evenodd" d="M157 109.446a6.017 6.017 0 0 1-4.259 1.758 5.993 5.993 0 0 1-4.252-1.758c-2.354-2.357-2.354-6.171 0-8.516l14.055-14.057H93.969c-.267 0-.564-.109-.843-.139-.613.206-1.244.387-1.923.387-8.365 0-15.178 6.757-15.178 15.054 0 8.298 6.813 15.055 15.178 15.055.158 0 .285.072.443.084.151-.012.285-.084.436-.084h62.667c.219 0 .401.097.613.121.206-.024.394-.121.606-.121 14.826 0 26.879 12.153 26.879 27.087 0 14.946-12.053 27.099-26.879 27.099-.212 0-.4-.102-.606-.127-.212.025-.394.127-.613.127H84.542L98.35 185.22a6.028 6.028 0 0 1 0 8.515 5.994 5.994 0 0 1-4.259 1.765 5.994 5.994 0 0 1-4.258-1.765L65.75 169.652a6.083 6.083 0 0 1-1.299-1.952 6.087 6.087 0 0 1-.467-2.309c0-.006.006-.006.006-.012 0-.78.158-1.553.461-2.285a5.99 5.99 0 0 1 1.305-1.964l24.076-24.077a6.024 6.024 0 0 1 8.517 0 6.028 6.028 0 0 1 0 8.515l-13.807 13.804h70.207c.219 0 .401.102.613.127.206-.025.394-.127.606-.127 8.184 0 14.838-6.751 14.838-15.055 0-8.298-6.654-15.048-14.838-15.048-.212 0-.4-.103-.606-.121-.212.018-.394.121-.613.121H92.082c-.151 0-.285-.079-.436-.091-.158.012-.285.091-.443.091-15.008 0-27.219-12.154-27.219-27.094 0-14.94 12.211-27.093 27.219-27.093.158 0 .285.073.443.085.151-.012.285-.085.436-.085h70.207l-13.8-13.81a6.01 6.01 0 0 1 0-8.509 6.017 6.017 0 0 1 8.511 0l24.082 24.078a6.053 6.053 0 0 1 1.765 4.248v.013c0 2.06-.843 3.698-2.214 4.707L157 109.446z" fill="url(#a)"/><defs><linearGradient id="a" x1="63.984" y1="51" x2="216.639" y2="131.104" gradientUnits="userSpaceOnUse"><stop stop-color="#4C54D2"/><stop offset=".563" stop-color="#BF14A2"/><stop offset="1" stop-color="#F73A1C"/></linearGradient></defs></svg>