<svg width="245" height="246" fill="none" xmlns="http://www.w3.org/2000/svg"><circle cx="122.5" cy="123.048" r="122.5" fill="#EDF1F4" fill-opacity=".8"/><path fill-rule="evenodd" clip-rule="evenodd" d="M174.167 185.048H138c-5.699 0-10.333-4.635-10.333-10.334v-36.166c0-5.699 4.634-10.334 10.333-10.334h36.167c5.699 0 10.333 4.635 10.333 10.334v36.166c0 5.699-4.634 10.334-10.333 10.334zM138 138.548v36.166h36.151l.016-36.166H138zm-30.99 46.5H70.833c-5.698 0-10.333-4.635-10.333-10.334v-36.166c0-5.699 4.635-10.334 10.333-10.334h36.177c5.699 0 10.334 4.635 10.334 10.334v36.166c0 5.699-4.635 10.334-10.334 10.334zm-36.177-46.5v36.166h36.162l.015-36.166H70.833zm36.177-20.667H70.833c-5.698 0-10.333-4.635-10.333-10.333V71.381c0-5.699 4.635-10.333 10.333-10.333h36.177c5.699 0 10.334 4.634 10.334 10.333v36.167c0 5.698-4.635 10.333-10.334 10.333zm-36.177-46.5v36.167h36.162l.015-36.167H70.833z" fill="url(#a)"/><path fill-rule="evenodd" clip-rule="evenodd" d="M155.102 119.594c-16.569 0-30-13.432-30-30 0-16.569 13.431-30 30-30 16.568 0 30 13.431 30 30 0 16.568-13.432 30-30 30zm.426-6.718c12.623 0 22.855-10.233 22.855-22.855 0-12.623-10.232-22.856-22.855-22.856-12.623 0-22.856 10.233-22.856 22.856 0 12.622 10.233 22.855 22.856 22.855zm-12.739-19.773a2.286 2.286 0 0 0-.56 3.183 16.053 16.053 0 0 0 13.17 6.857 16.059 16.059 0 0 0 13.472-7.303 2.286 2.286 0 0 0-3.829-2.497 11.489 11.489 0 0 1-9.643 5.23 11.484 11.484 0 0 1-9.427-4.91 2.285 2.285 0 0 0-3.183-.56zm4.74-7.654a3.428 3.428 0 1 0 0-6.857 3.428 3.428 0 0 0 0 6.857zm19.427-3.428a3.429 3.429 0 1 1-6.857 0 3.429 3.429 0 0 1 6.857 0z" fill="url(#b)"/><path d="m142.229 96.286 1.024-.717-1.024.717zm.56-3.183.717 1.023-.717-1.023zm26.082 2.737-1.047-.683 1.047.683zm-.667-3.163.683-1.047-.683 1.047zm-3.162.666 1.047.683-1.047-.683zm-19.07.32-1.023.717 1.023-.717zm-22.12-4.07c0 17.26 13.991 31.251 31.25 31.251v-2.5c-15.879 0-28.75-12.872-28.75-28.75h-2.5zm31.25-31.25c-17.259 0-31.25 13.992-31.25 31.25h2.5c0-15.877 12.871-28.75 28.75-28.75v-2.5zm31.25 31.25c0-17.258-13.992-31.25-31.25-31.25v2.5c15.878 0 28.75 12.873 28.75 28.75h2.5zm-31.25 31.251c17.258 0 31.25-13.991 31.25-31.25h-2.5c0 15.878-12.872 28.75-28.75 28.75v2.5zm22.031-30.823c0 11.932-9.673 21.605-21.605 21.605v2.5c13.313 0 24.105-10.792 24.105-24.105h-2.5zm-21.605-21.606c11.932 0 21.605 9.673 21.605 21.606h2.5c0-13.313-10.792-24.106-24.105-24.106v2.5zm-21.606 21.606c0-11.933 9.674-21.606 21.606-21.606v-2.5c-13.313 0-24.106 10.793-24.106 24.106h2.5zm21.606 21.605c-11.932 0-21.606-9.673-21.606-21.605h-2.5c0 13.313 10.793 24.105 24.106 24.105v-2.5zm-12.275-16.057a1.035 1.035 0 0 1 .253-1.443l-1.435-2.047a3.536 3.536 0 0 0-.866 4.925l2.048-1.435zm12.146 6.324c-4.895 0-9.389-2.39-12.146-6.324l-2.048 1.434a17.305 17.305 0 0 0 14.194 7.39v-2.5zm12.425-6.736a14.81 14.81 0 0 1-12.425 6.736v2.5a17.309 17.309 0 0 0 14.519-7.87l-2.094-1.366zm-.302-1.433c.479.312.614.954.302 1.433l2.094 1.365a3.536 3.536 0 0 0-1.031-4.892l-1.365 2.094zm-1.433.302c.312-.48.954-.614 1.433-.302l1.365-2.094a3.535 3.535 0 0 0-4.892 1.03l2.094 1.366zm-10.69 5.796a12.74 12.74 0 0 0 10.69-5.796l-2.094-1.366a10.239 10.239 0 0 1-8.596 4.662v2.5zm-10.45-5.442a12.733 12.733 0 0 0 10.45 5.442v-2.5c-3.388 0-6.492-1.65-8.403-4.377l-2.047 1.435zm-1.443-.254a1.036 1.036 0 0 1 1.443.254l2.047-1.435a3.536 3.536 0 0 0-4.925-.866l1.435 2.047zm6.201-12.106a2.178 2.178 0 0 1-2.178 2.179v2.5a4.678 4.678 0 0 0 4.678-4.678h-2.5zm-2.178-2.178c1.203 0 2.178.975 2.178 2.178h2.5a4.678 4.678 0 0 0-4.678-4.678v2.5zm-2.179 2.178c0-1.203.976-2.178 2.179-2.178v-2.5a4.679 4.679 0 0 0-4.679 4.678h2.5zm2.179 2.179a2.179 2.179 0 0 1-2.179-2.178h-2.5a4.679 4.679 0 0 0 4.679 4.678v-2.5zm15.998 2.5a4.679 4.679 0 0 0 4.679-4.678h-2.5a2.179 2.179 0 0 1-2.179 2.178v2.5zm-4.678-4.678a4.678 4.678 0 0 0 4.678 4.678v-2.5a2.178 2.178 0 0 1-2.178-2.178h-2.5zm4.678-4.679a4.678 4.678 0 0 0-4.678 4.678h2.5c0-1.203.975-2.178 2.178-2.178v-2.5zm4.679 4.678a4.679 4.679 0 0 0-4.679-4.678v2.5c1.203 0 2.179.975 2.179 2.178h2.5z" fill="url(#c)"/><defs><linearGradient id="a" x1="60.5" y1="61.048" x2="204.857" y2="153.136" gradientUnits="userSpaceOnUse"><stop stop-color="#4C54D2"/><stop offset=".563" stop-color="#BF14A2"/><stop offset="1" stop-color="#F73A1C"/></linearGradient><linearGradient id="b" x1="125.102" y1="59.594" x2="194.952" y2="104.153" gradientUnits="userSpaceOnUse"><stop stop-color="#4C54D2"/><stop offset=".563" stop-color="#BF14A2"/><stop offset="1" stop-color="#F73A1C"/></linearGradient><linearGradient id="c" x1="125.102" y1="59.594" x2="194.952" y2="104.153" gradientUnits="userSpaceOnUse"><stop stop-color="#4C54D2"/><stop offset=".563" stop-color="#BF14A2"/><stop offset="1" stop-color="#F73A1C"/></linearGradient></defs></svg>