<svg width="246" height="246" fill="none" xmlns="http://www.w3.org/2000/svg"><circle cx="123.293" cy="122.624" r="122.5" fill="#EDF1F4" fill-opacity=".8"/><circle cx="123.293" cy="122.624" r="120.5" stroke="#E9E9F4" stroke-opacity=".2" stroke-width="4"/><path fill-rule="evenodd" clip-rule="evenodd" d="M177.339 154.457h-37.546a5.165 5.165 0 0 1-5.167-5.166 5.165 5.165 0 0 1 5.167-5.167h36.167v-62H72.626v10.333a5.165 5.165 0 0 1-5.166 5.167 5.165 5.165 0 0 1-5.167-5.167V80.765c0-4.95 4.02-8.974 8.954-8.974h106.092c4.934 0 8.954 4.025 8.954 8.974v64.723c0 4.944-4.02 8.969-8.954 8.969zm-102.46-51.666h41.995c6.938 0 12.586 5.735 12.586 12.782v57.102c0 7.052-5.648 12.782-12.586 12.782H74.879c-6.939 0-12.586-5.73-12.586-12.782v-57.102c0-7.047 5.647-12.782 12.586-12.782zm-2.253 69.884c0 1.328 1.028 2.449 2.253 2.449h41.995c1.219 0 2.252-1.121 2.252-2.449v-57.102c0-1.328-1.033-2.449-2.252-2.449H74.879c-1.225 0-2.253 1.121-2.253 2.449v57.102zm15.5-54.384h15.5a5.166 5.166 0 1 1 0 10.333h-15.5a5.166 5.166 0 0 1-5.166-5.167 5.165 5.165 0 0 1 5.166-5.166zm15.5 51.666h-15.5v-10.333h15.5v10.333zm36.167-5.166h15.5a5.166 5.166 0 1 1 0 10.333h-15.5a5.166 5.166 0 1 1 0-10.333z" fill="url(#a)"/><defs><linearGradient id="a" x1="62.293" y1="71.791" x2="199.127" y2="167.016" gradientUnits="userSpaceOnUse"><stop stop-color="#4C54D2"/><stop offset=".563" stop-color="#BF14A2"/><stop offset="1" stop-color="#F73A1C"/></linearGradient></defs></svg>