<svg width="246" height="246" fill="none" xmlns="http://www.w3.org/2000/svg"><circle cx="123.294" cy="123.264" r="122.5" fill="#EDF1F4" fill-opacity=".8"/><path fill-rule="evenodd" clip-rule="evenodd" d="M185.056 119.381c.031.233.135.441.135.684v56.29c0 4.916-4.051 8.909-9.031 8.909h-54.207c-4.98 0-9.036-3.993-9.036-8.909v-11.73a5.165 5.165 0 0 1 10.328 0l.052 10.75h51.664l-.088-52.027h-15.494a5.158 5.158 0 0 1-5.161-5.16v-15.479H143.9a5.16 5.16 0 0 1-5.166-5.154 5.166 5.166 0 0 1 5.166-5.165h15.479c.114 0 .207.057.32.067a5 5 0 0 1 1.369.275c.161.057.321.099.476.171.537.25 1.049.566 1.488 1.001l20.087 20.074a5.157 5.157 0 0 1 2.175 4.21c0 .426-.145.804-.238 1.193zm-10.188-32.317a5.162 5.162 0 0 1-5.161-5.164 2.583 2.583 0 0 0-2.583-2.578c-.042 0-.073-.02-.114-.026-.036.006-.067.026-.109.026H156c1.168 1.976.992 4.527-.708 6.228a5.158 5.158 0 0 1-7.3 0l-7.75-7.737c-.067-.067-.087-.16-.149-.228-.388-.425-.734-.897-.961-1.436a5.173 5.173 0 0 1-.403-1.986c0-.69.144-1.364.403-1.986.227-.545.573-1.012.961-1.437.062-.072.082-.16.149-.228l7.75-7.742a5.169 5.169 0 0 1 7.3.005c1.7 1.696 1.876 4.247.708 6.228h10.901c.042 0 .073.02.109.02.041 0 .072-.02.114-.02 7.114 0 12.905 5.787 12.905 12.897a5.162 5.162 0 0 1-5.161 5.164zm-41.295 2.044v56.289c0 4.916-4.056 8.909-9.042 8.909h-54.2c-4.981 0-9.037-3.993-9.037-8.909V70.351c0-4.915 4.056-8.914 9.036-8.914h37.426c.108 0 .201.052.31.063.47.026.93.119 1.379.275.16.056.321.098.476.17.532.25 1.033.56 1.467.986.005.01.015.01.021.02l20.082 20.074a5.134 5.134 0 0 1 2.18 4.205c0 .42-.145.794-.238 1.183.031.238.14.446.14.695zM123.25 92.39h-15.494a5.158 5.158 0 0 1-5.161-5.16V71.751H71.617l.015 72.51h51.665l-.047-51.87zm-51.633 67.075a5.162 5.162 0 0 1 5.16 5.16 2.584 2.584 0 0 0 2.584 2.583c.041 0 .072.02.114.02.041 0 .072-.02.113-.02H90.49c-1.168-1.981-.992-4.527.707-6.228a5.158 5.158 0 0 1 7.3 0l7.745 7.737a5.095 5.095 0 0 1 1.498 3.583c0 .026.016.041.016.062v.005c0 .669-.14 1.338-.398 1.971a5.143 5.143 0 0 1-1.116 1.675l-7.744 7.742a5.15 5.15 0 0 1-3.648 1.509 5.162 5.162 0 0 1-3.653-1.509c-1.7-1.701-1.875-4.252-.707-6.228H79.588c-.041 0-.072-.021-.113-.026-.042.005-.073.026-.114.026-7.114 0-12.906-5.787-12.906-12.902 0-2.847 2.31-5.16 5.162-5.16z" fill="url(#a)"/><path clip-rule="evenodd" d="m82.164 130.456 15.044-28.797 15.044 28.797H82.164z" stroke="url(#b)" stroke-width="10.166" stroke-linecap="round" stroke-linejoin="round"/><defs><linearGradient id="a" x1="61.294" y1="61.264" x2="205.651" y2="153.352" gradientUnits="userSpaceOnUse"><stop stop-color="#4C54D2"/><stop offset=".563" stop-color="#BF14A2"/><stop offset="1" stop-color="#F73A1C"/></linearGradient><linearGradient id="b" x1="82.164" y1="101.659" x2="116.286" y2="124.402" gradientUnits="userSpaceOnUse"><stop stop-color="#4C54D2"/><stop offset=".563" stop-color="#BF14A2"/><stop offset="1" stop-color="#F73A1C"/></linearGradient></defs></svg>