<svg width="24" height="20" fill="none" xmlns="http://www.w3.org/2000/svg"><path d="M24 2.318c-.837.425-1.814.709-2.79.85 1.046-.637 1.813-1.63 2.232-2.835-.977.567-2.023.993-3.14 1.205A4.965 4.965 0 0 0 14.346.6c-1.97 1.066-3.011 3.325-2.555 5.545C7.884 5.933 4.116 4.09 1.674.9a4.885 4.885 0 0 0-.598 3.656A4.817 4.817 0 0 0 3.21 7.563c-.767 0-1.535-.142-2.232-.496.07 2.339 1.674 4.394 3.907 4.89-.698.213-1.465.213-2.233.071.698 2.056 2.582 3.473 4.675 3.544C5.302 17.273 2.58 18.053 0 17.628a13.7 13.7 0 0 0 14.666.472c4.577-2.694 7.25-7.797 6.892-13.16.977-.708 1.814-1.559 2.442-2.622Z" fill="#1DA1F3"/></svg>